<svg width="65" height="65" viewBox="0 0 65 65" fill="none" xmlns="http://www.w3.org/2000/svg">
<mask id="mask0_969_193" style="mask-type:alpha" maskUnits="userSpaceOnUse" x="0" y="0" width="65" height="65">
<rect width="65" height="65" fill="#D9D9D9"/>
</mask>
<g mask="url(#mask0_969_193)">
<path d="M0 57V51.1111H65V57H0ZM8.86364 48.1667C7.23864 48.1667 5.84754 47.59 4.69034 46.4368C3.53314 45.2836 2.95455 43.8972 2.95455 42.2778V9.88889C2.95455 8.26944 3.53314 6.8831 4.69034 5.72986C5.84754 4.57662 7.23864 4 8.86364 4H56.1364C57.7614 4 59.1525 4.57662 60.3097 5.72986C61.4669 6.8831 62.0455 8.26944 62.0455 9.88889V42.2778C62.0455 43.8972 61.4669 45.2836 60.3097 46.4368C59.1525 47.59 57.7614 48.1667 56.1364 48.1667H8.86364ZM8.86364 42.2778H56.1364V9.88889H8.86364V42.2778Z" fill="#FF4B57"/>
<path d="M26.133 33.2661L18 25.133L26.133 17L28.0646 18.9316L21.8293 25.1669L28.0307 31.3684L26.133 33.2661ZM36.9771 33.2661L35.0455 31.3345L41.2808 25.0991L35.0794 18.8977L36.9771 17L45.1101 25.133L36.9771 33.2661Z" fill="#FF4B57"/>
</g>
</svg>
