<svg width="62" height="62" viewBox="0 0 62 62" fill="none" xmlns="http://www.w3.org/2000/svg">
<path d="M15.0592 48.7775C14.2181 48.2168 13.4948 47.5018 12.648 46.4897C12.2086 45.9518 11.773 45.4107 11.3416 44.8664C10.0435 43.2542 9.22483 42.5114 8.37814 42.2057C7.67807 41.9544 7.10652 41.4353 6.78922 40.7626C6.47189 40.0899 6.43483 39.3186 6.68616 38.6186C6.93748 37.9184 7.45661 37.3468 8.12935 37.0296C8.80209 36.7123 9.57333 36.6753 10.2734 36.9266C12.3817 37.6835 13.8087 38.9873 15.732 41.3787C15.4685 41.0507 16.6853 42.5757 16.946 42.8898C17.4787 43.5263 17.8712 43.9132 18.1796 44.1178C18.7515 44.502 19.8253 44.6673 21.4038 44.5103C21.4683 43.4393 21.6673 42.3992 21.9701 41.4403C13.6489 39.405 8.93885 34.0389 8.93885 23.5084C8.93885 20.0319 9.97619 16.9031 11.9051 14.2789C11.2939 11.7725 11.3864 8.74176 12.7518 5.32977C12.9067 4.94382 13.1456 4.59716 13.4511 4.31495C13.7566 4.03273 14.1211 3.82201 14.5181 3.69806C14.7452 3.63077 14.8741 3.59993 15.1012 3.56629C17.3525 3.22146 20.5319 4.04292 24.6756 6.63905C27.145 6.06176 29.6728 5.77198 32.2088 5.77555C34.7657 5.77555 37.3058 6.06712 39.7339 6.63905C43.8747 4.02329 47.0597 3.20183 49.3278 3.56629C49.5661 3.60274 49.768 3.6504 49.9389 3.70647C50.3281 3.83481 50.6846 4.04693 50.983 4.32789C51.2814 4.60883 51.5144 4.95178 51.666 5.33258C53.0313 8.74176 53.1239 11.7725 52.5126 14.2761C54.45 16.9003 55.479 20.0095 55.479 23.5084C55.479 34.0416 50.7858 39.3909 42.4646 41.4291C42.8149 42.5926 42.9972 43.8936 42.9972 45.2981C42.9974 47.8364 42.9863 50.3746 42.9635 52.9127C43.5932 53.05 44.1562 53.4002 44.558 53.9041C44.9599 54.4078 45.1757 55.0348 45.1695 55.6792C45.1633 56.3236 44.9353 56.9462 44.5238 57.4422C44.1122 57.9382 43.5424 58.2772 42.9102 58.4022C39.717 59.0414 37.3507 56.9107 37.3507 54.1267L37.3564 52.8762L37.3703 50.8998C37.3845 48.9148 37.3899 47.1486 37.3899 45.2981C37.3899 43.3439 36.8768 42.0683 36.1985 41.4853C34.3453 39.8872 35.2844 36.8452 37.7125 36.5733C46.0307 35.6397 49.8716 32.4184 49.8716 23.5084C49.8716 20.831 48.9969 18.6189 47.312 16.7685C46.9571 16.3795 46.7187 15.8984 46.6246 15.3802C46.5302 14.8621 46.5839 14.3278 46.7792 13.8387C47.2448 12.678 47.4438 11.1557 47.0485 9.31371L47.0204 9.32212C45.6438 9.71183 43.9084 10.5557 41.8113 11.9828C41.4732 12.2123 41.089 12.365 40.6854 12.4304C40.282 12.4958 39.8691 12.4722 39.4758 12.3612C37.1093 11.706 34.6644 11.3768 32.2088 11.3828C29.7137 11.3828 27.2409 11.7164 24.9418 12.364C24.5501 12.4741 24.1389 12.4975 23.7371 12.4326C23.3353 12.3678 22.9522 12.2161 22.6149 11.9884C20.5065 10.5669 18.7627 9.72584 17.3778 9.33334C16.974 11.1641 17.1731 12.6809 17.6357 13.8387C17.8314 14.3276 17.8855 14.8616 17.7918 15.3798C17.6981 15.8979 17.4603 16.3792 17.1058 16.7685C15.432 18.6021 14.5461 20.8562 14.5461 23.5084C14.5461 32.4015 18.3899 35.6424 26.6633 36.5733C29.0885 36.8452 30.0305 39.8731 28.1885 41.4741C27.6503 41.9451 26.9857 43.5263 26.9857 45.2981V54.1296C26.9857 56.8938 24.6448 58.9658 21.4908 58.4134C20.8508 58.3011 20.2697 57.9699 19.847 57.4768C19.424 56.9836 19.1857 56.3587 19.1725 55.7093C19.1592 55.0596 19.372 54.4257 19.7743 53.9157C20.1767 53.4056 20.7437 53.051 21.3786 52.9127V50.1372C18.8272 50.3083 16.7189 49.8904 15.0592 48.7775Z" fill="#FF4B57"/>
</svg>
