<svg width="62" height="62" viewBox="0 0 62 62" fill="none" xmlns="http://www.w3.org/2000/svg">
<path d="M17.7813 14.2685C17.7807 15.5364 17.2764 16.7521 16.3794 17.6482C15.4824 18.5443 14.2662 19.0474 12.9982 19.0468C11.7303 19.0461 10.5146 18.5418 9.61846 17.6448C8.72236 16.7478 8.21929 15.5316 8.21991 14.2637C8.22055 12.9958 8.72484 11.78 9.62185 10.8839C10.5189 9.9878 11.7351 9.48473 13.003 9.48535C14.2709 9.48599 15.4867 9.99028 16.3828 10.8873C17.2789 11.7843 17.782 13.0005 17.7813 14.2685ZM17.9248 22.5868H8.36334V52.514H17.9248V22.5868ZM33.0318 22.5868H23.5181V52.514H32.9361V36.8094C32.9361 28.0608 44.3381 27.2481 44.3381 36.8094V52.514H53.7801V33.5587C53.7801 18.8101 36.9041 19.3599 32.9361 26.6027L33.0318 22.5868Z" fill="#FF4B57"/>
</svg>
