<svg width="25" height="25" viewBox="0 0 25 25" fill="none" xmlns="http://www.w3.org/2000/svg">
<g opacity="0.04">
<path d="M12.5 3.646C15.0521 3.646 17.4479 4.16683 19.0104 4.5835C19.6354 4.73975 20.0521 5.26058 20.1562 5.93766C20.2604 6.92725 20.3125 7.96891 20.3125 9.01058C20.3125 17.1356 14.3229 20.4168 12.5 21.1981C10.6771 20.3647 4.6875 17.0835 4.6875 9.01058C4.6875 7.96891 4.73958 6.92725 4.84375 5.93766C4.89583 5.26058 5.36458 4.73975 5.98958 4.5835C7.55208 4.16683 9.94792 3.646 12.5 3.646ZM12.5 2.0835C9.79167 2.0835 7.23958 2.60433 5.57292 3.07308C4.375 3.38558 3.4375 4.47933 3.33333 5.72933C3.22917 6.61475 3.125 7.76058 3.125 9.01058C3.125 19.6877 12.5 22.9168 12.5 22.9168C12.5 22.9168 21.875 19.6877 21.875 9.01058C21.875 7.7085 21.7708 6.61475 21.6667 5.72933C21.5104 4.42725 20.625 3.38558 19.375 3.07308C17.7604 2.60433 15.2083 2.0835 12.5 2.0835Z" fill="white"/>
<path d="M11.9792 14.5835H13.0209V18.7502H11.9792V14.5835Z" fill="white"/>
<path d="M12.5 5.2085C12.5 5.2085 9.375 7.81266 9.375 11.9793C9.375 14.6877 11.0937 16.4064 11.9792 17.1877L12.5 15.6252L13.0208 17.1877C13.9062 16.4064 15.625 14.6877 15.625 11.9793C15.625 7.81266 12.5 5.2085 12.5 5.2085Z" fill="white"/>
<path d="M12.5 5.2085C12.5 5.2085 9.375 7.81266 9.375 11.9793C9.375 14.6877 11.0937 16.4064 11.9792 17.1877L12.5 15.6252V5.2085Z" fill="#BDBDBD"/>
</g>
</svg>
