<svg width="25" height="25" viewBox="0 0 25 25" fill="none" xmlns="http://www.w3.org/2000/svg">
<g opacity="0.04">
<path d="M9.88233 16.4064C9.88233 16.8377 9.53285 17.1877 9.10108 17.1877C8.66931 17.1877 8.31983 16.8377 8.31983 16.4064V9.11475C8.31983 8.77464 8.54014 8.4736 8.8641 8.36995C9.18962 8.26683 9.54223 8.38558 9.73858 8.66318L18.4766 21.009C21.1547 19.1194 22.9167 16.008 22.9167 12.5002C22.9167 6.771 18.2292 2.0835 12.5 2.0835C6.77087 2.0835 2.08337 6.771 2.08337 12.5002C2.08337 18.2293 6.77087 22.9168 12.5 22.9168C14.1625 22.9168 15.7323 22.5121 17.1302 21.8116L9.88233 11.571V16.4064ZM15.0907 8.59391C15.0907 8.16266 15.4401 7.81266 15.8719 7.81266C16.3037 7.81266 16.6532 8.16266 16.6532 8.59391V15.8022L15.0907 13.6007V8.59391Z" fill="white"/>
</g>
</svg>
