<svg width="65" height="65" viewBox="0 0 65 65" fill="none" xmlns="http://www.w3.org/2000/svg">
<mask id="mask0_969_184" style="mask-type:alpha" maskUnits="userSpaceOnUse" x="0" y="0" width="65" height="65">
<rect width="65" height="65" fill="#F24A56"/>
</mask>
<g mask="url(#mask0_969_184)">
<path d="M33.9034 44.6323L58.6477 20.1041L54.8068 16.2968L30.0625 40.825L33.9034 44.6323ZM14.625 51.0023C9.70076 50.7583 6.0322 49.7332 3.61932 47.9272C1.20644 46.1211 0 43.5097 0 40.0928C0 36.92 1.31723 34.3451 3.9517 32.3682C6.58617 30.3913 10.2424 29.2076 14.9205 28.8171C16.8409 28.6707 18.2813 28.3656 19.2415 27.9019C20.2017 27.4382 20.6818 26.7914 20.6818 25.9616C20.6818 24.6925 19.9555 23.7407 18.5028 23.1061C17.0502 22.4715 14.6496 22.0078 11.3011 21.715L11.8182 15.8575C16.8902 16.248 20.6203 17.2608 23.0085 18.896C25.3968 20.5313 26.5909 22.8865 26.5909 25.9616C26.5909 28.5487 25.643 30.5744 23.7472 32.0388C21.8513 33.5031 19.0568 34.3818 15.3636 34.6746C12.2121 34.9187 9.84848 35.4922 8.27273 36.3953C6.69697 37.2983 5.90909 38.5308 5.90909 40.0928C5.90909 41.8012 6.59848 43.0337 7.97727 43.7903C9.35606 44.5469 11.6705 44.9984 14.9205 45.1449L14.625 51.0023ZM35.3068 51.5149L23.1193 39.4338L51.3352 11.4644C52.3201 10.4881 53.4896 10 54.8438 10C56.1979 10 57.3674 10.4881 58.3523 11.4644L63.5227 16.5897C64.5076 17.5659 65 18.7252 65 20.0675C65 21.4099 64.5076 22.5692 63.5227 23.5454L35.3068 51.5149ZM23.5625 53.9311C22.7254 54.1263 21.9867 53.9067 21.3466 53.2721C20.7064 52.6376 20.4848 51.9054 20.6818 51.0756L23.1193 39.4338L35.3068 51.5149L23.5625 53.9311Z" fill="#F24A56"/>
</g>
</svg>
