<svg width="62" height="62" viewBox="0 0 62 62" fill="none" xmlns="http://www.w3.org/2000/svg">
<path d="M56.8333 43.7097V51.4597C56.8362 52.1791 56.6889 52.8913 56.4006 53.5504C56.1123 54.2096 55.6896 54.8015 55.1595 55.2878C54.6294 55.7741 54.0034 56.1444 53.322 56.3749C52.6403 56.6055 51.9182 56.6911 51.2016 56.6262C43.2524 55.7625 35.6163 53.0461 28.9075 48.6954C22.6657 44.7292 17.3738 39.4373 13.4075 33.1954C9.0416 26.456 6.32462 18.783 5.47666 10.7979C5.4121 10.0836 5.497 9.36357 5.72596 8.6838C5.95489 8.00403 6.32288 7.37939 6.80646 6.84962C7.29006 6.31987 7.87865 5.89661 8.53479 5.6068C9.1909 5.31696 9.9002 5.16694 10.6175 5.16627H18.3675C19.6213 5.15392 20.8367 5.59788 21.7872 6.41539C22.7377 7.2329 23.3587 8.36818 23.5341 9.60961C23.8613 12.0898 24.4679 14.525 25.3425 16.8688C25.6901 17.7934 25.7653 18.7983 25.5593 19.7643C25.3532 20.7305 24.8746 21.6171 24.18 22.3197L20.8991 25.6004C24.5766 32.068 29.9317 37.4229 36.3991 41.1004L39.68 37.8197C40.3824 37.1251 41.2692 36.6463 42.2352 36.4404C43.2012 36.2344 44.2062 36.3096 45.1308 36.6572C47.4746 37.5318 49.9098 38.1384 52.39 38.4654C53.6449 38.6425 54.791 39.2745 55.6101 40.2415C56.4295 41.2084 56.8647 42.4427 56.8333 43.7097Z" stroke="#FF4B57" stroke-width="2" stroke-linecap="round" stroke-linejoin="round"/>
</svg>
