<svg width="65" height="65" viewBox="0 0 65 65" fill="none" xmlns="http://www.w3.org/2000/svg">
<mask id="mask0_969_206" style="mask-type:alpha" maskUnits="userSpaceOnUse" x="0" y="0" width="65" height="65">
<rect width="65" height="65" fill="#F24A56"/>
</mask>
<g mask="url(#mask0_969_206)">
<path d="M31.7073 65C27.3211 65 23.1992 64.1469 19.3415 62.4406C15.4837 60.7344 12.128 58.4188 9.27439 55.4938C6.42073 52.5688 4.16159 49.1292 2.49695 45.175C0.832317 41.2208 0 36.9958 0 32.5C0 28.0042 0.832317 23.7792 2.49695 19.825C4.16159 15.8708 6.42073 12.4313 9.27439 9.50625C12.128 6.58125 15.4837 4.26563 19.3415 2.55938C23.1992 0.853125 27.3211 0 31.7073 0C39.4228 0 46.1738 2.47813 51.9604 7.43438C57.747 12.3906 61.3537 18.6063 62.7805 26.0813H56.2805C55.2764 22.1271 53.4665 18.5927 50.8506 15.4781C48.2348 12.3635 45.0244 10.0208 41.2195 8.45V9.75C41.2195 11.5375 40.5986 13.0677 39.3567 14.3406C38.1148 15.6135 36.622 16.25 34.8781 16.25H28.5366V22.75C28.5366 23.6708 28.2327 24.4427 27.625 25.0656C27.0173 25.6885 26.2642 26 25.3659 26H19.0244V32.5H25.3659V42.25H22.1951L6.97561 26.65C6.81707 27.625 6.67175 28.6 6.53963 29.575C6.40752 30.55 6.34146 31.525 6.34146 32.5C6.34146 39.5958 8.77236 45.6896 13.6341 50.7812C18.4959 55.8729 24.5203 58.4458 31.7073 58.5V65ZM60.561 63.375L50.4146 52.975C49.3049 53.625 48.1159 54.1667 46.8476 54.6C45.5793 55.0333 44.2317 55.25 42.8049 55.25C38.8415 55.25 35.4726 53.8281 32.6982 50.9844C29.9238 48.1406 28.5366 44.6875 28.5366 40.625C28.5366 36.5625 29.9238 33.1094 32.6982 30.2656C35.4726 27.4219 38.8415 26 42.8049 26C46.7683 26 50.1372 27.4219 52.9116 30.2656C55.686 33.1094 57.0732 36.5625 57.0732 40.625C57.0732 42.0875 56.8618 43.4688 56.439 44.7688C56.0163 46.0688 55.4878 47.2875 54.8537 48.425L65 58.825L60.561 63.375ZM42.8049 48.75C45.0244 48.75 46.9004 47.9646 48.4329 46.3937C49.9655 44.8229 50.7317 42.9 50.7317 40.625C50.7317 38.35 49.9655 36.4271 48.4329 34.8563C46.9004 33.2854 45.0244 32.5 42.8049 32.5C40.5854 32.5 38.7094 33.2854 37.1768 34.8563C35.6443 36.4271 34.8781 38.35 34.8781 40.625C34.8781 42.9 35.6443 44.8229 37.1768 46.3937C38.7094 47.9646 40.5854 48.75 42.8049 48.75Z" fill="#F24A56"/>
</g>
</svg>
